<?xml version="1.0" standalone="no"?>
<!DOCTYPE svg PUBLIC "-//W3C//DTD SVG 20010904//EN"
 "http://www.w3.org/TR/2001/REC-SVG-20010904/DTD/svg10.dtd">
<svg version="1.0" xmlns="http://www.w3.org/2000/svg"
 width="668.000000pt" height="669.000000pt" viewBox="0 0 668.000000 669.000000"
 preserveAspectRatio="xMidYMid meet">

<g transform="translate(0.000000,669.000000) scale(0.100000,-0.100000)"
fill="#fff" stroke="none">
<path d="M1807 6503 c-4 -3 -7 -498 -7 -1100 0 -965 2 -1093 15 -1093 13 0 15
127 15 1085 l0 1085 515 0 c451 0 515 2 515 15 0 13 -65 15 -523 15 -288 0
-527 -3 -530 -7z"/>
<path d="M3740 6485 c0 -13 63 -15 515 -15 l515 0 0 -1085 c0 -959 2 -1085 15
-1085 13 0 15 126 13 1098 l-3 1097 -527 3 c-465 2 -528 0 -528 -13z"/>
<path d="M1710 3929 c-103 -46 -161 -133 -168 -249 -9 -148 54 -228 267 -339
140 -74 186 -117 197 -187 17 -114 -60 -194 -189 -194 -54 0 -70 5 -110 30
-25 17 -60 53 -77 80 l-32 50 -27 -16 c-15 -9 -38 -24 -50 -33 l-23 -18 32
-51 c37 -60 95 -113 159 -144 65 -32 195 -32 266 0 113 52 175 147 175 272 0
144 -54 211 -249 315 -68 37 -139 77 -157 91 -46 36 -67 86 -62 146 15 154
194 196 324 76 l41 -38 44 40 44 40 -57 54 c-71 68 -141 96 -236 96 -46 0 -81
-7 -112 -21z"/>
<path d="M2600 3390 l0 -560 70 0 70 0 0 560 0 560 -70 0 -70 0 0 -560z"/>
<path d="M3250 3885 l0 -65 250 0 c138 0 250 -2 250 -4 0 -2 -117 -210 -260
-461 -197 -347 -260 -466 -260 -492 l0 -33 370 0 370 0 0 70 0 70 -266 0
c-225 0 -265 2 -261 14 3 8 118 213 256 455 195 343 251 449 251 476 l0 35
-350 0 -350 0 0 -65z"/>
<path d="M4460 3390 l0 -560 320 0 320 0 0 65 0 65 -250 0 -250 0 0 200 0 200
220 0 220 0 0 65 0 65 -220 0 -220 0 0 165 0 165 250 0 250 0 0 65 0 65 -320
0 -320 0 0 -560z"/>
<path d="M4770 1335 l0 -1085 -515 0 c-452 0 -515 -2 -515 -15 0 -13 63 -15
528 -13 l527 3 3 1098 c2 971 0 1097 -13 1097 -13 0 -15 -126 -15 -1085z"/>
<path d="M1810 1315 l0 -1095 525 0 c460 0 525 2 525 15 0 13 -63 15 -510 15
l-510 0 0 1080 c0 953 -2 1080 -15 1080 -13 0 -15 -128 -15 -1095z"/>
</g>
</svg>
